<mxfile host="app.diagrams.net" agent="Mozilla/5.0 (X11; Ubuntu; Linux x86_64; rv:133.0) Gecko/20100101 Firefox/133.0" version="25.0.3">
  <diagram id="C5RBs43oDa-KdzZeNtuy" name="Page-1">
    <mxGraphModel dx="3363" dy="2614" grid="1" gridSize="10" guides="1" tooltips="1" connect="1" arrows="1" fold="1" page="1" pageScale="1" pageWidth="827" pageHeight="1169" math="0" shadow="0">
      <root>
        <mxCell id="WIyWlLk6GJQsqaUBKTNV-0" />
        <mxCell id="WIyWlLk6GJQsqaUBKTNV-1" parent="WIyWlLk6GJQsqaUBKTNV-0" />
        <mxCell id="zkfFHV4jXpPFQw0GAbJ--0" value="Utilisateur" style="swimlane;fontStyle=2;align=center;verticalAlign=top;childLayout=stackLayout;horizontal=1;startSize=26;horizontalStack=0;resizeParent=1;resizeLast=0;collapsible=1;marginBottom=0;rounded=0;shadow=0;strokeWidth=1;" parent="WIyWlLk6GJQsqaUBKTNV-1" vertex="1">
          <mxGeometry x="-610" y="73" width="160" height="310" as="geometry">
            <mxRectangle x="230" y="140" width="160" height="26" as="alternateBounds" />
          </mxGeometry>
        </mxCell>
        <mxCell id="zkfFHV4jXpPFQw0GAbJ--1" value="numP:varchar(4)" style="text;align=left;verticalAlign=top;spacingLeft=4;spacingRight=4;overflow=hidden;rotatable=0;points=[[0,0.5],[1,0.5]];portConstraint=eastwest;" parent="zkfFHV4jXpPFQw0GAbJ--0" vertex="1">
          <mxGeometry y="26" width="160" height="26" as="geometry" />
        </mxCell>
        <mxCell id="zkfFHV4jXpPFQw0GAbJ--3" value="numU:varchar(20)&#xa;&#xa;PrenomU :varchar(20)&#xa;&#xa;mail : varchar(50)&#xa;&#xa;motdepasse:varchar(20)&#xa;&#xa;role: varchar(20)&#xa;&#xa;&#xa;" style="text;align=left;verticalAlign=top;spacingLeft=4;spacingRight=4;overflow=hidden;rotatable=0;points=[[0,0.5],[1,0.5]];portConstraint=eastwest;rounded=0;shadow=0;html=0;" parent="zkfFHV4jXpPFQw0GAbJ--0" vertex="1">
          <mxGeometry y="52" width="160" height="148" as="geometry" />
        </mxCell>
        <mxCell id="zkfFHV4jXpPFQw0GAbJ--4" value="" style="line;html=1;strokeWidth=1;align=left;verticalAlign=middle;spacingTop=-1;spacingLeft=3;spacingRight=3;rotatable=0;labelPosition=right;points=[];portConstraint=eastwest;" parent="zkfFHV4jXpPFQw0GAbJ--0" vertex="1">
          <mxGeometry y="200" width="160" height="8" as="geometry" />
        </mxCell>
        <mxCell id="zkfFHV4jXpPFQw0GAbJ--5" value="registerUser()&#xa;UpdateProfile()&#xa;connecteUser()&#xa;" style="text;align=left;verticalAlign=top;spacingLeft=4;spacingRight=4;overflow=hidden;rotatable=0;points=[[0,0.5],[1,0.5]];portConstraint=eastwest;" parent="zkfFHV4jXpPFQw0GAbJ--0" vertex="1">
          <mxGeometry y="208" width="160" height="102" as="geometry" />
        </mxCell>
        <mxCell id="zkfFHV4jXpPFQw0GAbJ--6" value="Chef projet" style="swimlane;fontStyle=0;align=center;verticalAlign=top;childLayout=stackLayout;horizontal=1;startSize=26;horizontalStack=0;resizeParent=1;resizeLast=0;collapsible=1;marginBottom=0;rounded=0;shadow=0;strokeWidth=1;" parent="WIyWlLk6GJQsqaUBKTNV-1" vertex="1">
          <mxGeometry x="-450" y="540" width="160" height="300" as="geometry">
            <mxRectangle x="130" y="380" width="160" height="26" as="alternateBounds" />
          </mxGeometry>
        </mxCell>
        <mxCell id="zkfFHV4jXpPFQw0GAbJ--8" value="numU:varche(4)" style="text;align=left;verticalAlign=top;spacingLeft=4;spacingRight=4;overflow=hidden;rotatable=0;points=[[0,0.5],[1,0.5]];portConstraint=eastwest;rounded=0;shadow=0;html=0;" parent="zkfFHV4jXpPFQw0GAbJ--6" vertex="1">
          <mxGeometry y="26" width="160" height="26" as="geometry" />
        </mxCell>
        <mxCell id="zkfFHV4jXpPFQw0GAbJ--9" value="" style="line;html=1;strokeWidth=1;align=left;verticalAlign=middle;spacingTop=-1;spacingLeft=3;spacingRight=3;rotatable=0;labelPosition=right;points=[];portConstraint=eastwest;" parent="zkfFHV4jXpPFQw0GAbJ--6" vertex="1">
          <mxGeometry y="52" width="160" height="8" as="geometry" />
        </mxCell>
        <mxCell id="zkfFHV4jXpPFQw0GAbJ--12" value="" style="endArrow=block;endSize=10;endFill=0;shadow=0;strokeWidth=1;rounded=0;curved=0;edgeStyle=elbowEdgeStyle;elbow=vertical;" parent="WIyWlLk6GJQsqaUBKTNV-1" edge="1">
          <mxGeometry width="160" relative="1" as="geometry">
            <mxPoint x="-370" y="540" as="sourcePoint" />
            <mxPoint x="-470" y="383" as="targetPoint" />
            <Array as="points">
              <mxPoint x="200" y="515" />
            </Array>
          </mxGeometry>
        </mxCell>
        <mxCell id="zkfFHV4jXpPFQw0GAbJ--13" value="Developpeur" style="swimlane;fontStyle=0;align=center;verticalAlign=top;childLayout=stackLayout;horizontal=1;startSize=26;horizontalStack=0;resizeParent=1;resizeLast=0;collapsible=1;marginBottom=0;rounded=0;shadow=0;strokeWidth=1;" parent="WIyWlLk6GJQsqaUBKTNV-1" vertex="1">
          <mxGeometry x="-220" y="540" width="160" height="240" as="geometry">
            <mxRectangle x="340" y="380" width="170" height="26" as="alternateBounds" />
          </mxGeometry>
        </mxCell>
        <mxCell id="zkfFHV4jXpPFQw0GAbJ--14" value="numU:varchar(4)" style="text;align=left;verticalAlign=top;spacingLeft=4;spacingRight=4;overflow=hidden;rotatable=0;points=[[0,0.5],[1,0.5]];portConstraint=eastwest;" parent="zkfFHV4jXpPFQw0GAbJ--13" vertex="1">
          <mxGeometry y="26" width="160" height="26" as="geometry" />
        </mxCell>
        <mxCell id="zkfFHV4jXpPFQw0GAbJ--15" value="" style="line;html=1;strokeWidth=1;align=left;verticalAlign=middle;spacingTop=-1;spacingLeft=3;spacingRight=3;rotatable=0;labelPosition=right;points=[];portConstraint=eastwest;" parent="zkfFHV4jXpPFQw0GAbJ--13" vertex="1">
          <mxGeometry y="52" width="160" height="8" as="geometry" />
        </mxCell>
        <mxCell id="zkfFHV4jXpPFQw0GAbJ--16" value="" style="endArrow=block;endSize=10;endFill=0;shadow=0;strokeWidth=1;rounded=0;curved=0;edgeStyle=elbowEdgeStyle;elbow=vertical;entryX=0.688;entryY=1.02;entryDx=0;entryDy=0;entryPerimeter=0;" parent="WIyWlLk6GJQsqaUBKTNV-1" source="zkfFHV4jXpPFQw0GAbJ--13" target="zkfFHV4jXpPFQw0GAbJ--5" edge="1">
          <mxGeometry width="160" relative="1" as="geometry">
            <mxPoint x="210" y="373" as="sourcePoint" />
            <mxPoint x="310" y="271" as="targetPoint" />
            <Array as="points">
              <mxPoint x="-180" y="450" />
              <mxPoint x="290" y="420" />
            </Array>
          </mxGeometry>
        </mxCell>
        <mxCell id="zkfFHV4jXpPFQw0GAbJ--17" value="Projet" style="swimlane;fontStyle=0;align=center;verticalAlign=top;childLayout=stackLayout;horizontal=1;startSize=26;horizontalStack=0;resizeParent=1;resizeLast=0;collapsible=1;marginBottom=0;rounded=0;shadow=0;strokeWidth=1;" parent="WIyWlLk6GJQsqaUBKTNV-1" vertex="1">
          <mxGeometry x="-150" y="-50" width="160" height="360" as="geometry">
            <mxRectangle x="550" y="140" width="160" height="26" as="alternateBounds" />
          </mxGeometry>
        </mxCell>
        <mxCell id="zkfFHV4jXpPFQw0GAbJ--19" value="numP:varchar(4)&#xa;" style="text;align=left;verticalAlign=top;spacingLeft=4;spacingRight=4;overflow=hidden;rotatable=0;points=[[0,0.5],[1,0.5]];portConstraint=eastwest;rounded=0;shadow=0;html=0;" parent="zkfFHV4jXpPFQw0GAbJ--17" vertex="1">
          <mxGeometry y="26" width="160" height="26" as="geometry" />
        </mxCell>
        <mxCell id="zkfFHV4jXpPFQw0GAbJ--18" value="nomP:varchar(50)&#xa;" style="text;align=left;verticalAlign=top;spacingLeft=4;spacingRight=4;overflow=hidden;rotatable=0;points=[[0,0.5],[1,0.5]];portConstraint=eastwest;" parent="zkfFHV4jXpPFQw0GAbJ--17" vertex="1">
          <mxGeometry y="52" width="160" height="26" as="geometry" />
        </mxCell>
        <mxCell id="zkfFHV4jXpPFQw0GAbJ--20" value="description:varcher(70)" style="text;align=left;verticalAlign=top;spacingLeft=4;spacingRight=4;overflow=hidden;rotatable=0;points=[[0,0.5],[1,0.5]];portConstraint=eastwest;rounded=0;shadow=0;html=0;" parent="zkfFHV4jXpPFQw0GAbJ--17" vertex="1">
          <mxGeometry y="78" width="160" height="26" as="geometry" />
        </mxCell>
        <mxCell id="zkfFHV4jXpPFQw0GAbJ--21" value="dateDebP;date" style="text;align=left;verticalAlign=top;spacingLeft=4;spacingRight=4;overflow=hidden;rotatable=0;points=[[0,0.5],[1,0.5]];portConstraint=eastwest;rounded=0;shadow=0;html=0;" parent="zkfFHV4jXpPFQw0GAbJ--17" vertex="1">
          <mxGeometry y="104" width="160" height="26" as="geometry" />
        </mxCell>
        <mxCell id="zkfFHV4jXpPFQw0GAbJ--22" value="dateFinP:date" style="text;align=left;verticalAlign=top;spacingLeft=4;spacingRight=4;overflow=hidden;rotatable=0;points=[[0,0.5],[1,0.5]];portConstraint=eastwest;rounded=0;shadow=0;html=0;" parent="zkfFHV4jXpPFQw0GAbJ--17" vertex="1">
          <mxGeometry y="130" width="160" height="26" as="geometry" />
        </mxCell>
        <mxCell id="zkfFHV4jXpPFQw0GAbJ--23" value="" style="line;html=1;strokeWidth=1;align=left;verticalAlign=middle;spacingTop=-1;spacingLeft=3;spacingRight=3;rotatable=0;labelPosition=right;points=[];portConstraint=eastwest;" parent="zkfFHV4jXpPFQw0GAbJ--17" vertex="1">
          <mxGeometry y="156" width="160" height="8" as="geometry" />
        </mxCell>
        <mxCell id="C4UMS-F8YCJd4OorJaOU-111" value="insererProjet()&#xa;&#xa;modfifierProjet()&#xa;&#xa;supprimerProjet()&#xa;&#xa;addDeveloperToProject()&#xa;&#xa;SupprimerMembre()&#xa;&#xa;metrreAjourProgresProjet()&#xa;&#xa;&#xa;&#xa;&#xa;&#xa;&#xa;&#xa;&#xa;&#xa;&#xa;" style="text;align=left;verticalAlign=top;spacingLeft=4;spacingRight=4;overflow=hidden;rotatable=0;points=[[0,0.5],[1,0.5]];portConstraint=eastwest;" parent="zkfFHV4jXpPFQw0GAbJ--17" vertex="1">
          <mxGeometry y="164" width="160" height="196" as="geometry" />
        </mxCell>
        <mxCell id="zkfFHV4jXpPFQw0GAbJ--26" value="" style="endArrow=open;shadow=0;strokeWidth=1;rounded=0;curved=0;endFill=1;edgeStyle=elbowEdgeStyle;elbow=vertical;exitX=1;exitY=0.091;exitDx=0;exitDy=0;exitPerimeter=0;" parent="WIyWlLk6GJQsqaUBKTNV-1" source="zkfFHV4jXpPFQw0GAbJ--6" target="zkfFHV4jXpPFQw0GAbJ--17" edge="1">
          <mxGeometry x="0.5" y="41" relative="1" as="geometry">
            <mxPoint x="330" y="550" as="sourcePoint" />
            <mxPoint x="540" y="192" as="targetPoint" />
            <mxPoint x="-40" y="32" as="offset" />
            <Array as="points">
              <mxPoint x="-130" y="480" />
              <mxPoint x="80" y="330" />
              <mxPoint x="530" y="430" />
            </Array>
          </mxGeometry>
        </mxCell>
        <mxCell id="zkfFHV4jXpPFQw0GAbJ--27" value="1" style="resizable=0;align=left;verticalAlign=bottom;labelBackgroundColor=none;fontSize=12;" parent="zkfFHV4jXpPFQw0GAbJ--26" connectable="0" vertex="1">
          <mxGeometry x="-1" relative="1" as="geometry">
            <mxPoint x="10" y="-20" as="offset" />
          </mxGeometry>
        </mxCell>
        <mxCell id="C4UMS-F8YCJd4OorJaOU-14" value="creer" style="edgeLabel;html=1;align=center;verticalAlign=middle;resizable=0;points=[];" parent="zkfFHV4jXpPFQw0GAbJ--26" vertex="1" connectable="0">
          <mxGeometry x="0.3029" y="4" relative="1" as="geometry">
            <mxPoint as="offset" />
          </mxGeometry>
        </mxCell>
        <mxCell id="C4UMS-F8YCJd4OorJaOU-5" value="admin" style="swimlane;fontStyle=0;align=center;verticalAlign=top;childLayout=stackLayout;horizontal=1;startSize=26;horizontalStack=0;resizeParent=1;resizeLast=0;collapsible=1;marginBottom=0;rounded=0;shadow=0;strokeWidth=1;" parent="WIyWlLk6GJQsqaUBKTNV-1" vertex="1">
          <mxGeometry x="-620" y="540" width="160" height="220" as="geometry">
            <mxRectangle x="130" y="380" width="160" height="26" as="alternateBounds" />
          </mxGeometry>
        </mxCell>
        <mxCell id="C4UMS-F8YCJd4OorJaOU-6" value="numU:varche(4)" style="text;align=left;verticalAlign=top;spacingLeft=4;spacingRight=4;overflow=hidden;rotatable=0;points=[[0,0.5],[1,0.5]];portConstraint=eastwest;rounded=0;shadow=0;html=0;" parent="C4UMS-F8YCJd4OorJaOU-5" vertex="1">
          <mxGeometry y="26" width="160" height="26" as="geometry" />
        </mxCell>
        <mxCell id="C4UMS-F8YCJd4OorJaOU-7" value="" style="line;html=1;strokeWidth=1;align=left;verticalAlign=middle;spacingTop=-1;spacingLeft=3;spacingRight=3;rotatable=0;labelPosition=right;points=[];portConstraint=eastwest;" parent="C4UMS-F8YCJd4OorJaOU-5" vertex="1">
          <mxGeometry y="52" width="160" height="8" as="geometry" />
        </mxCell>
        <mxCell id="ZdGvJILfiImhMNjiY4ll-1" value="modifierrole()" style="text;html=1;align=center;verticalAlign=middle;resizable=0;points=[];autosize=1;strokeColor=none;fillColor=none;" vertex="1" parent="C4UMS-F8YCJd4OorJaOU-5">
          <mxGeometry y="60" width="160" height="30" as="geometry" />
        </mxCell>
        <mxCell id="C4UMS-F8YCJd4OorJaOU-9" value="" style="endArrow=block;endSize=10;endFill=0;shadow=0;strokeWidth=1;rounded=0;curved=0;edgeStyle=elbowEdgeStyle;elbow=vertical;entryX=0.156;entryY=0.971;entryDx=0;entryDy=0;entryPerimeter=0;exitX=0.456;exitY=-0.005;exitDx=0;exitDy=0;exitPerimeter=0;" parent="WIyWlLk6GJQsqaUBKTNV-1" source="C4UMS-F8YCJd4OorJaOU-5" target="zkfFHV4jXpPFQw0GAbJ--5" edge="1">
          <mxGeometry width="160" relative="1" as="geometry">
            <mxPoint x="-440" y="540" as="sourcePoint" />
            <mxPoint x="120" y="430" as="targetPoint" />
          </mxGeometry>
        </mxCell>
        <mxCell id="C4UMS-F8YCJd4OorJaOU-22" value="" style="endArrow=open;shadow=0;strokeWidth=1;rounded=0;curved=0;endFill=1;edgeStyle=elbowEdgeStyle;elbow=vertical;" parent="WIyWlLk6GJQsqaUBKTNV-1" edge="1">
          <mxGeometry x="0.5" y="41" relative="1" as="geometry">
            <mxPoint x="-120" y="540" as="sourcePoint" />
            <mxPoint x="-50" y="290" as="targetPoint" />
            <mxPoint x="-40" y="32" as="offset" />
            <Array as="points">
              <mxPoint x="-60" y="456" />
            </Array>
          </mxGeometry>
        </mxCell>
        <mxCell id="C4UMS-F8YCJd4OorJaOU-25" value="affecter" style="edgeLabel;html=1;align=center;verticalAlign=middle;resizable=0;points=[];" parent="C4UMS-F8YCJd4OorJaOU-22" vertex="1" connectable="0">
          <mxGeometry x="0.3029" y="4" relative="1" as="geometry">
            <mxPoint x="24" as="offset" />
          </mxGeometry>
        </mxCell>
        <mxCell id="C4UMS-F8YCJd4OorJaOU-28" value="Tache" style="swimlane;fontStyle=0;align=center;verticalAlign=top;childLayout=stackLayout;horizontal=1;startSize=26;horizontalStack=0;resizeParent=1;resizeLast=0;collapsible=1;marginBottom=0;rounded=0;shadow=0;strokeWidth=1;" parent="WIyWlLk6GJQsqaUBKTNV-1" vertex="1">
          <mxGeometry x="-400" y="20" width="160" height="350" as="geometry">
            <mxRectangle x="550" y="140" width="160" height="26" as="alternateBounds" />
          </mxGeometry>
        </mxCell>
        <mxCell id="C4UMS-F8YCJd4OorJaOU-29" value="numT:varchar(4)&#xa;" style="text;align=left;verticalAlign=top;spacingLeft=4;spacingRight=4;overflow=hidden;rotatable=0;points=[[0,0.5],[1,0.5]];portConstraint=eastwest;rounded=0;shadow=0;html=0;" parent="C4UMS-F8YCJd4OorJaOU-28" vertex="1">
          <mxGeometry y="26" width="160" height="26" as="geometry" />
        </mxCell>
        <mxCell id="C4UMS-F8YCJd4OorJaOU-30" value="nomT:varchar(20)&#xa;" style="text;align=left;verticalAlign=top;spacingLeft=4;spacingRight=4;overflow=hidden;rotatable=0;points=[[0,0.5],[1,0.5]];portConstraint=eastwest;" parent="C4UMS-F8YCJd4OorJaOU-28" vertex="1">
          <mxGeometry y="52" width="160" height="26" as="geometry" />
        </mxCell>
        <mxCell id="C4UMS-F8YCJd4OorJaOU-31" value="dateEch:date" style="text;align=left;verticalAlign=top;spacingLeft=4;spacingRight=4;overflow=hidden;rotatable=0;points=[[0,0.5],[1,0.5]];portConstraint=eastwest;rounded=0;shadow=0;html=0;" parent="C4UMS-F8YCJd4OorJaOU-28" vertex="1">
          <mxGeometry y="78" width="160" height="26" as="geometry" />
        </mxCell>
        <mxCell id="C4UMS-F8YCJd4OorJaOU-32" value="priorite:varchar(10)" style="text;align=left;verticalAlign=top;spacingLeft=4;spacingRight=4;overflow=hidden;rotatable=0;points=[[0,0.5],[1,0.5]];portConstraint=eastwest;rounded=0;shadow=0;html=0;" parent="C4UMS-F8YCJd4OorJaOU-28" vertex="1">
          <mxGeometry y="104" width="160" height="26" as="geometry" />
        </mxCell>
        <mxCell id="C4UMS-F8YCJd4OorJaOU-33" value="status:varchar(10)&#xa;&#xa;" style="text;align=left;verticalAlign=top;spacingLeft=4;spacingRight=4;overflow=hidden;rotatable=0;points=[[0,0.5],[1,0.5]];portConstraint=eastwest;rounded=0;shadow=0;html=0;" parent="C4UMS-F8YCJd4OorJaOU-28" vertex="1">
          <mxGeometry y="130" width="160" height="30" as="geometry" />
        </mxCell>
        <mxCell id="C4UMS-F8YCJd4OorJaOU-34" value="" style="line;html=1;strokeWidth=1;align=left;verticalAlign=middle;spacingTop=-1;spacingLeft=3;spacingRight=3;rotatable=0;labelPosition=right;points=[];portConstraint=eastwest;" parent="C4UMS-F8YCJd4OorJaOU-28" vertex="1">
          <mxGeometry y="160" width="160" height="8" as="geometry" />
        </mxCell>
        <mxCell id="C4UMS-F8YCJd4OorJaOU-112" value="inserertache()&#xa;&#xa;modifierTache()&#xa;&#xa;supprimertache()&#xa;&#xa;suivreEtatTache()&#xa;&#xa;inserDependancesTache()&#xa;ModifierStatuts()&#xa;enregistrerTemps()&#xa;&#xa;&#xa;&#xa;&#xa;&#xa;&#xa;&#xa;&#xa;&#xa;&#xa;&#xa;&#xa;&#xa;&#xa;&#xa;" style="text;align=left;verticalAlign=top;spacingLeft=4;spacingRight=4;overflow=hidden;rotatable=0;points=[[0,0.5],[1,0.5]];portConstraint=eastwest;" parent="C4UMS-F8YCJd4OorJaOU-28" vertex="1">
          <mxGeometry y="168" width="160" height="172" as="geometry" />
        </mxCell>
        <mxCell id="C4UMS-F8YCJd4OorJaOU-36" style="edgeStyle=orthogonalEdgeStyle;rounded=0;orthogonalLoop=1;jettySize=auto;html=1;entryX=0;entryY=0.75;entryDx=0;entryDy=0;exitX=-0.025;exitY=0.767;exitDx=0;exitDy=0;exitPerimeter=0;" parent="WIyWlLk6GJQsqaUBKTNV-1" edge="1">
          <mxGeometry relative="1" as="geometry">
            <mxPoint x="104" y="430.5" as="targetPoint" />
            <mxPoint x="-61" y="651.0100000000002" as="sourcePoint" />
            <Array as="points">
              <mxPoint x="-61" y="658" />
              <mxPoint x="-20" y="658" />
              <mxPoint x="-20" y="431" />
              <mxPoint x="90" y="431" />
            </Array>
          </mxGeometry>
        </mxCell>
        <mxCell id="C4UMS-F8YCJd4OorJaOU-37" value="envoie " style="edgeLabel;html=1;align=center;verticalAlign=middle;resizable=0;points=[];" parent="C4UMS-F8YCJd4OorJaOU-36" vertex="1" connectable="0">
          <mxGeometry x="-0.0205" y="4" relative="1" as="geometry">
            <mxPoint as="offset" />
          </mxGeometry>
        </mxCell>
        <mxCell id="C4UMS-F8YCJd4OorJaOU-38" value="notification" style="swimlane;fontStyle=0;align=center;verticalAlign=top;childLayout=stackLayout;horizontal=1;startSize=26;horizontalStack=0;resizeParent=1;resizeLast=0;collapsible=1;marginBottom=0;rounded=0;shadow=0;strokeWidth=1;" parent="WIyWlLk6GJQsqaUBKTNV-1" vertex="1">
          <mxGeometry x="50" y="-240" width="160" height="216" as="geometry">
            <mxRectangle x="550" y="140" width="160" height="26" as="alternateBounds" />
          </mxGeometry>
        </mxCell>
        <mxCell id="C4UMS-F8YCJd4OorJaOU-39" value="numN:varchar(4)&#xa;" style="text;align=left;verticalAlign=top;spacingLeft=4;spacingRight=4;overflow=hidden;rotatable=0;points=[[0,0.5],[1,0.5]];portConstraint=eastwest;rounded=0;shadow=0;html=0;" parent="C4UMS-F8YCJd4OorJaOU-38" vertex="1">
          <mxGeometry y="26" width="160" height="26" as="geometry" />
        </mxCell>
        <mxCell id="C4UMS-F8YCJd4OorJaOU-40" value="message:varchar(500)&#xa;" style="text;align=left;verticalAlign=top;spacingLeft=4;spacingRight=4;overflow=hidden;rotatable=0;points=[[0,0.5],[1,0.5]];portConstraint=eastwest;" parent="C4UMS-F8YCJd4OorJaOU-38" vertex="1">
          <mxGeometry y="52" width="160" height="26" as="geometry" />
        </mxCell>
        <mxCell id="C4UMS-F8YCJd4OorJaOU-41" value="Type:varchar(10)" style="text;align=left;verticalAlign=top;spacingLeft=4;spacingRight=4;overflow=hidden;rotatable=0;points=[[0,0.5],[1,0.5]];portConstraint=eastwest;rounded=0;shadow=0;html=0;" parent="C4UMS-F8YCJd4OorJaOU-38" vertex="1">
          <mxGeometry y="78" width="160" height="26" as="geometry" />
        </mxCell>
        <mxCell id="C4UMS-F8YCJd4OorJaOU-42" value="priorite:varchar(10)" style="text;align=left;verticalAlign=top;spacingLeft=4;spacingRight=4;overflow=hidden;rotatable=0;points=[[0,0.5],[1,0.5]];portConstraint=eastwest;rounded=0;shadow=0;html=0;" parent="C4UMS-F8YCJd4OorJaOU-38" vertex="1">
          <mxGeometry y="104" width="160" height="26" as="geometry" />
        </mxCell>
        <mxCell id="C4UMS-F8YCJd4OorJaOU-43" value="status:varchar(10)&#xa;&#xa;" style="text;align=left;verticalAlign=top;spacingLeft=4;spacingRight=4;overflow=hidden;rotatable=0;points=[[0,0.5],[1,0.5]];portConstraint=eastwest;rounded=0;shadow=0;html=0;" parent="C4UMS-F8YCJd4OorJaOU-38" vertex="1">
          <mxGeometry y="130" width="160" height="70" as="geometry" />
        </mxCell>
        <mxCell id="C4UMS-F8YCJd4OorJaOU-44" value="" style="line;html=1;strokeWidth=1;align=left;verticalAlign=middle;spacingTop=-1;spacingLeft=3;spacingRight=3;rotatable=0;labelPosition=right;points=[];portConstraint=eastwest;" parent="C4UMS-F8YCJd4OorJaOU-38" vertex="1">
          <mxGeometry y="200" width="160" height="8" as="geometry" />
        </mxCell>
        <mxCell id="C4UMS-F8YCJd4OorJaOU-64" value="1" style="text;html=1;align=center;verticalAlign=middle;resizable=0;points=[];autosize=1;strokeColor=none;fillColor=none;" parent="WIyWlLk6GJQsqaUBKTNV-1" vertex="1">
          <mxGeometry x="50" y="410" width="30" height="30" as="geometry" />
        </mxCell>
        <mxCell id="C4UMS-F8YCJd4OorJaOU-67" value="Commentaire" style="swimlane;fontStyle=0;align=center;verticalAlign=top;childLayout=stackLayout;horizontal=1;startSize=26;horizontalStack=0;resizeParent=1;resizeLast=0;collapsible=1;marginBottom=0;rounded=0;shadow=0;strokeWidth=1;" parent="WIyWlLk6GJQsqaUBKTNV-1" vertex="1">
          <mxGeometry x="94" y="350" width="160" height="140" as="geometry">
            <mxRectangle x="550" y="140" width="160" height="26" as="alternateBounds" />
          </mxGeometry>
        </mxCell>
        <mxCell id="C4UMS-F8YCJd4OorJaOU-68" value="ID:int(11)" style="text;align=left;verticalAlign=top;spacingLeft=4;spacingRight=4;overflow=hidden;rotatable=0;points=[[0,0.5],[1,0.5]];portConstraint=eastwest;rounded=0;shadow=0;html=0;" parent="C4UMS-F8YCJd4OorJaOU-67" vertex="1">
          <mxGeometry y="26" width="160" height="26" as="geometry" />
        </mxCell>
        <mxCell id="C4UMS-F8YCJd4OorJaOU-69" value="contenu:varchar(500)&#xa;" style="text;align=left;verticalAlign=top;spacingLeft=4;spacingRight=4;overflow=hidden;rotatable=0;points=[[0,0.5],[1,0.5]];portConstraint=eastwest;" parent="C4UMS-F8YCJd4OorJaOU-67" vertex="1">
          <mxGeometry y="52" width="160" height="26" as="geometry" />
        </mxCell>
        <mxCell id="C4UMS-F8YCJd4OorJaOU-118" value="&lt;div&gt;AddComment():void&lt;/div&gt;" style="text;html=1;align=center;verticalAlign=middle;resizable=0;points=[];autosize=1;strokeColor=none;fillColor=none;" parent="C4UMS-F8YCJd4OorJaOU-67" vertex="1">
          <mxGeometry y="78" width="160" height="30" as="geometry" />
        </mxCell>
        <mxCell id="C4UMS-F8YCJd4OorJaOU-120" value="supprimerMessage():void" style="text;html=1;align=center;verticalAlign=middle;resizable=0;points=[];autosize=1;strokeColor=none;fillColor=none;" parent="C4UMS-F8YCJd4OorJaOU-67" vertex="1">
          <mxGeometry y="108" width="160" height="30" as="geometry" />
        </mxCell>
        <mxCell id="C4UMS-F8YCJd4OorJaOU-81" value="" style="endArrow=classic;html=1;rounded=0;entryX=0.169;entryY=-0.027;entryDx=0;entryDy=0;entryPerimeter=0;" parent="WIyWlLk6GJQsqaUBKTNV-1" target="C4UMS-F8YCJd4OorJaOU-67" edge="1">
          <mxGeometry relative="1" as="geometry">
            <mxPoint x="-30" y="290" as="sourcePoint" />
            <mxPoint x="120" y="317.5" as="targetPoint" />
          </mxGeometry>
        </mxCell>
        <mxCell id="C4UMS-F8YCJd4OorJaOU-83" value="1" style="edgeLabel;resizable=0;html=1;;align=left;verticalAlign=bottom;" parent="C4UMS-F8YCJd4OorJaOU-81" connectable="0" vertex="1">
          <mxGeometry x="-1" relative="1" as="geometry">
            <mxPoint x="10" y="20" as="offset" />
          </mxGeometry>
        </mxCell>
        <mxCell id="C4UMS-F8YCJd4OorJaOU-87" value="avoir" style="text;strokeColor=none;align=center;fillColor=none;html=1;verticalAlign=middle;whiteSpace=wrap;rounded=0;" parent="WIyWlLk6GJQsqaUBKTNV-1" vertex="1">
          <mxGeometry y="320" width="60" height="30" as="geometry" />
        </mxCell>
        <mxCell id="C4UMS-F8YCJd4OorJaOU-94" value="" style="endArrow=open;shadow=0;strokeWidth=1;rounded=0;curved=0;endFill=1;edgeStyle=elbowEdgeStyle;elbow=vertical;exitX=1;exitY=0.091;exitDx=0;exitDy=0;exitPerimeter=0;" parent="WIyWlLk6GJQsqaUBKTNV-1" edge="1">
          <mxGeometry x="0.5" y="41" relative="1" as="geometry">
            <mxPoint x="-350" y="550.5" as="sourcePoint" />
            <mxPoint x="-350" y="350" as="targetPoint" />
            <mxPoint x="-40" y="32" as="offset" />
            <Array as="points">
              <mxPoint x="-190" y="470.5" />
              <mxPoint x="20" y="320.5" />
              <mxPoint x="470" y="420.5" />
            </Array>
          </mxGeometry>
        </mxCell>
        <mxCell id="C4UMS-F8YCJd4OorJaOU-96" value="1" style="resizable=0;align=right;verticalAlign=bottom;labelBackgroundColor=none;fontSize=12;" parent="C4UMS-F8YCJd4OorJaOU-94" connectable="0" vertex="1">
          <mxGeometry x="1" relative="1" as="geometry">
            <mxPoint x="-7" y="24" as="offset" />
          </mxGeometry>
        </mxCell>
        <mxCell id="C4UMS-F8YCJd4OorJaOU-97" value="creer" style="edgeLabel;html=1;align=center;verticalAlign=middle;resizable=0;points=[];" parent="C4UMS-F8YCJd4OorJaOU-94" vertex="1" connectable="0">
          <mxGeometry x="0.3029" y="4" relative="1" as="geometry">
            <mxPoint as="offset" />
          </mxGeometry>
        </mxCell>
        <mxCell id="C4UMS-F8YCJd4OorJaOU-98" value="" style="endArrow=open;shadow=0;strokeWidth=1;rounded=0;curved=0;endFill=1;edgeStyle=elbowEdgeStyle;elbow=vertical;exitX=0;exitY=0.769;exitDx=0;exitDy=0;exitPerimeter=0;" parent="WIyWlLk6GJQsqaUBKTNV-1" source="zkfFHV4jXpPFQw0GAbJ--21" edge="1">
          <mxGeometry x="0.5" y="41" relative="1" as="geometry">
            <mxPoint x="-170" y="190" as="sourcePoint" />
            <mxPoint x="-240" y="210" as="targetPoint" />
            <mxPoint x="-40" y="32" as="offset" />
            <Array as="points">
              <mxPoint x="-200" y="210" />
              <mxPoint x="130" y="220.5" />
              <mxPoint x="580" y="320.5" />
            </Array>
          </mxGeometry>
        </mxCell>
        <mxCell id="C4UMS-F8YCJd4OorJaOU-99" value="0.*" style="resizable=0;align=left;verticalAlign=bottom;labelBackgroundColor=none;fontSize=12;" parent="C4UMS-F8YCJd4OorJaOU-98" connectable="0" vertex="1">
          <mxGeometry x="-1" relative="1" as="geometry">
            <mxPoint x="10" y="-20" as="offset" />
          </mxGeometry>
        </mxCell>
        <mxCell id="C4UMS-F8YCJd4OorJaOU-100" value="1" style="resizable=0;align=right;verticalAlign=bottom;labelBackgroundColor=none;fontSize=12;" parent="C4UMS-F8YCJd4OorJaOU-98" connectable="0" vertex="1">
          <mxGeometry x="1" relative="1" as="geometry">
            <mxPoint x="80" y="-10" as="offset" />
          </mxGeometry>
        </mxCell>
        <mxCell id="C4UMS-F8YCJd4OorJaOU-103" value="contient" style="edgeLabel;html=1;align=center;verticalAlign=middle;resizable=0;points=[];" parent="C4UMS-F8YCJd4OorJaOU-98" vertex="1" connectable="0">
          <mxGeometry x="-0.0291" y="4" relative="1" as="geometry">
            <mxPoint x="-44" as="offset" />
          </mxGeometry>
        </mxCell>
        <mxCell id="C4UMS-F8YCJd4OorJaOU-105" value="" style="endArrow=open;shadow=0;strokeWidth=1;rounded=0;curved=0;endFill=1;edgeStyle=elbowEdgeStyle;elbow=vertical;entryX=0.338;entryY=0.005;entryDx=0;entryDy=0;entryPerimeter=0;exitX=0.919;exitY=0.009;exitDx=0;exitDy=0;exitPerimeter=0;" parent="WIyWlLk6GJQsqaUBKTNV-1" source="C4UMS-F8YCJd4OorJaOU-28" target="C4UMS-F8YCJd4OorJaOU-28" edge="1">
          <mxGeometry x="0.5" y="41" relative="1" as="geometry">
            <mxPoint x="-250" y="80" as="sourcePoint" />
            <mxPoint x="-340" y="63" as="targetPoint" />
            <mxPoint x="-40" y="32" as="offset" />
            <Array as="points">
              <mxPoint x="-310" y="-60" />
              <mxPoint x="-300" y="63" />
              <mxPoint x="30" y="73.5" />
              <mxPoint x="480" y="173.5" />
            </Array>
          </mxGeometry>
        </mxCell>
        <mxCell id="C4UMS-F8YCJd4OorJaOU-110" value="dependre" style="edgeLabel;html=1;align=center;verticalAlign=middle;resizable=0;points=[];" parent="C4UMS-F8YCJd4OorJaOU-105" vertex="1" connectable="0">
          <mxGeometry x="0.2132" relative="1" as="geometry">
            <mxPoint x="14" y="-20" as="offset" />
          </mxGeometry>
        </mxCell>
        <mxCell id="C4UMS-F8YCJd4OorJaOU-114" value="" style="endArrow=none;html=1;rounded=0;" parent="WIyWlLk6GJQsqaUBKTNV-1" edge="1">
          <mxGeometry width="50" height="50" relative="1" as="geometry">
            <mxPoint x="90" y="433" as="sourcePoint" />
            <mxPoint x="254" y="433" as="targetPoint" />
          </mxGeometry>
        </mxCell>
        <mxCell id="C4UMS-F8YCJd4OorJaOU-121" value="Temps" style="swimlane;fontStyle=0;align=center;verticalAlign=top;childLayout=stackLayout;horizontal=1;startSize=26;horizontalStack=0;resizeParent=1;resizeLast=0;collapsible=1;marginBottom=0;rounded=0;shadow=0;strokeWidth=1;" parent="WIyWlLk6GJQsqaUBKTNV-1" vertex="1">
          <mxGeometry x="-510" y="-300" width="160" height="216" as="geometry">
            <mxRectangle x="550" y="140" width="160" height="26" as="alternateBounds" />
          </mxGeometry>
        </mxCell>
        <mxCell id="C4UMS-F8YCJd4OorJaOU-122" value="idT:varchar(4)&#xa;" style="text;align=left;verticalAlign=top;spacingLeft=4;spacingRight=4;overflow=hidden;rotatable=0;points=[[0,0.5],[1,0.5]];portConstraint=eastwest;rounded=0;shadow=0;html=0;" parent="C4UMS-F8YCJd4OorJaOU-121" vertex="1">
          <mxGeometry y="26" width="160" height="26" as="geometry" />
        </mxCell>
        <mxCell id="C4UMS-F8YCJd4OorJaOU-123" value="temps:time " style="text;align=left;verticalAlign=top;spacingLeft=4;spacingRight=4;overflow=hidden;rotatable=0;points=[[0,0.5],[1,0.5]];portConstraint=eastwest;" parent="C4UMS-F8YCJd4OorJaOU-121" vertex="1">
          <mxGeometry y="52" width="160" height="26" as="geometry" />
        </mxCell>
        <mxCell id="C4UMS-F8YCJd4OorJaOU-127" value="" style="line;html=1;strokeWidth=1;align=left;verticalAlign=middle;spacingTop=-1;spacingLeft=3;spacingRight=3;rotatable=0;labelPosition=right;points=[];portConstraint=eastwest;" parent="C4UMS-F8YCJd4OorJaOU-121" vertex="1">
          <mxGeometry y="78" width="160" height="8" as="geometry" />
        </mxCell>
        <mxCell id="C4UMS-F8YCJd4OorJaOU-129" value="+Ajoutertemps():void" style="text;html=1;align=center;verticalAlign=middle;resizable=0;points=[];autosize=1;strokeColor=none;fillColor=none;" parent="C4UMS-F8YCJd4OorJaOU-121" vertex="1">
          <mxGeometry y="86" width="160" height="30" as="geometry" />
        </mxCell>
        <mxCell id="C4UMS-F8YCJd4OorJaOU-130" value="+enregistrer le temps" style="text;html=1;align=center;verticalAlign=middle;resizable=0;points=[];autosize=1;strokeColor=none;fillColor=none;" parent="C4UMS-F8YCJd4OorJaOU-121" vertex="1">
          <mxGeometry y="116" width="160" height="30" as="geometry" />
        </mxCell>
        <mxCell id="C4UMS-F8YCJd4OorJaOU-137" value="+supprimertemps():void" style="text;html=1;align=center;verticalAlign=middle;resizable=0;points=[];autosize=1;strokeColor=none;fillColor=none;" parent="C4UMS-F8YCJd4OorJaOU-121" vertex="1">
          <mxGeometry y="146" width="160" height="30" as="geometry" />
        </mxCell>
        <mxCell id="C4UMS-F8YCJd4OorJaOU-138" value="" style="endArrow=none;html=1;rounded=0;exitX=0.081;exitY=-0.003;exitDx=0;exitDy=0;exitPerimeter=0;" parent="WIyWlLk6GJQsqaUBKTNV-1" edge="1">
          <mxGeometry width="50" height="50" relative="1" as="geometry">
            <mxPoint x="-359.99999999999994" y="9.010000000000218" as="sourcePoint" />
            <mxPoint x="-432.96" y="-80" as="targetPoint" />
            <Array as="points" />
          </mxGeometry>
        </mxCell>
        <mxCell id="C4UMS-F8YCJd4OorJaOU-139" value="&lt;font style=&quot;font-size: 36px;&quot;&gt;*&lt;/font&gt;" style="text;html=1;align=center;verticalAlign=middle;resizable=0;points=[];autosize=1;strokeColor=none;fillColor=none;" parent="WIyWlLk6GJQsqaUBKTNV-1" vertex="1">
          <mxGeometry x="-482.96" y="-80" width="40" height="60" as="geometry" />
        </mxCell>
        <mxCell id="C4UMS-F8YCJd4OorJaOU-141" value="" style="endArrow=none;html=1;rounded=0;entryX=0.333;entryY=-0.033;entryDx=0;entryDy=0;entryPerimeter=0;" parent="WIyWlLk6GJQsqaUBKTNV-1" target="C4UMS-F8YCJd4OorJaOU-139" edge="1">
          <mxGeometry width="50" height="50" relative="1" as="geometry">
            <mxPoint x="-530" y="73" as="sourcePoint" />
            <mxPoint x="-480" y="23" as="targetPoint" />
          </mxGeometry>
        </mxCell>
        <mxCell id="C4UMS-F8YCJd4OorJaOU-144" value="&lt;font style=&quot;font-size: 24px;&quot;&gt;*&lt;/font&gt;" style="text;html=1;align=center;verticalAlign=middle;resizable=0;points=[];autosize=1;strokeColor=none;fillColor=none;" parent="WIyWlLk6GJQsqaUBKTNV-1" vertex="1">
          <mxGeometry x="-520" y="45" width="30" height="40" as="geometry" />
        </mxCell>
        <mxCell id="C4UMS-F8YCJd4OorJaOU-145" value="rapportTemps" style="swimlane;fontStyle=0;align=center;verticalAlign=top;childLayout=stackLayout;horizontal=1;startSize=26;horizontalStack=0;resizeParent=1;resizeLast=0;collapsible=1;marginBottom=0;rounded=0;shadow=0;strokeWidth=1;" parent="WIyWlLk6GJQsqaUBKTNV-1" vertex="1">
          <mxGeometry x="-210" y="-270" width="160" height="180" as="geometry">
            <mxRectangle x="550" y="140" width="160" height="26" as="alternateBounds" />
          </mxGeometry>
        </mxCell>
        <mxCell id="C4UMS-F8YCJd4OorJaOU-146" value="idRapport:varchar(4)&#xa;" style="text;align=left;verticalAlign=top;spacingLeft=4;spacingRight=4;overflow=hidden;rotatable=0;points=[[0,0.5],[1,0.5]];portConstraint=eastwest;rounded=0;shadow=0;html=0;" parent="C4UMS-F8YCJd4OorJaOU-145" vertex="1">
          <mxGeometry y="26" width="160" height="26" as="geometry" />
        </mxCell>
        <mxCell id="C4UMS-F8YCJd4OorJaOU-147" value="tempstotal:time " style="text;align=left;verticalAlign=top;spacingLeft=4;spacingRight=4;overflow=hidden;rotatable=0;points=[[0,0.5],[1,0.5]];portConstraint=eastwest;" parent="C4UMS-F8YCJd4OorJaOU-145" vertex="1">
          <mxGeometry y="52" width="160" height="26" as="geometry" />
        </mxCell>
        <mxCell id="C4UMS-F8YCJd4OorJaOU-148" value="" style="line;html=1;strokeWidth=1;align=left;verticalAlign=middle;spacingTop=-1;spacingLeft=3;spacingRight=3;rotatable=0;labelPosition=right;points=[];portConstraint=eastwest;" parent="C4UMS-F8YCJd4OorJaOU-145" vertex="1">
          <mxGeometry y="78" width="160" height="8" as="geometry" />
        </mxCell>
        <mxCell id="C4UMS-F8YCJd4OorJaOU-155" value="genererrapport():void" style="text;html=1;align=center;verticalAlign=middle;resizable=0;points=[];autosize=1;strokeColor=none;fillColor=none;" parent="C4UMS-F8YCJd4OorJaOU-145" vertex="1">
          <mxGeometry y="86" width="160" height="30" as="geometry" />
        </mxCell>
        <mxCell id="C4UMS-F8YCJd4OorJaOU-156" value="afficherrapport():void" style="text;html=1;align=center;verticalAlign=middle;resizable=0;points=[];autosize=1;strokeColor=none;fillColor=none;" parent="C4UMS-F8YCJd4OorJaOU-145" vertex="1">
          <mxGeometry y="116" width="160" height="30" as="geometry" />
        </mxCell>
        <mxCell id="C4UMS-F8YCJd4OorJaOU-157" value="" style="endArrow=open;shadow=0;strokeWidth=1;rounded=0;curved=0;endFill=1;edgeStyle=elbowEdgeStyle;elbow=vertical;entryX=0.188;entryY=1.25;entryDx=0;entryDy=0;entryPerimeter=0;" parent="WIyWlLk6GJQsqaUBKTNV-1" target="C4UMS-F8YCJd4OorJaOU-44" edge="1">
          <mxGeometry x="0.5" y="41" relative="1" as="geometry">
            <mxPoint x="10" y="200" as="sourcePoint" />
            <mxPoint x="10" y="186" as="targetPoint" />
            <mxPoint x="-40" y="32" as="offset" />
            <Array as="points">
              <mxPoint x="50" y="186" />
              <mxPoint x="380" y="196.5" />
              <mxPoint x="830" y="296.5" />
            </Array>
          </mxGeometry>
        </mxCell>
        <mxCell id="C4UMS-F8YCJd4OorJaOU-159" value="1" style="resizable=0;align=right;verticalAlign=bottom;labelBackgroundColor=none;fontSize=12;" parent="C4UMS-F8YCJd4OorJaOU-157" connectable="0" vertex="1">
          <mxGeometry x="1" relative="1" as="geometry">
            <mxPoint x="-20" y="210" as="offset" />
          </mxGeometry>
        </mxCell>
        <mxCell id="C4UMS-F8YCJd4OorJaOU-161" value="&lt;font style=&quot;font-size: 36px;&quot;&gt;*&lt;/font&gt;" style="text;html=1;align=center;verticalAlign=middle;resizable=0;points=[];autosize=1;strokeColor=none;fillColor=none;" parent="WIyWlLk6GJQsqaUBKTNV-1" vertex="1">
          <mxGeometry x="94" y="-20" width="40" height="60" as="geometry" />
        </mxCell>
        <mxCell id="C4UMS-F8YCJd4OorJaOU-171" value="" style="endArrow=open;shadow=0;strokeWidth=1;rounded=0;curved=0;endFill=1;edgeStyle=elbowEdgeStyle;elbow=vertical;entryX=0.25;entryY=1;entryDx=0;entryDy=0;exitX=0.4;exitY=0;exitDx=0;exitDy=0;exitPerimeter=0;" parent="WIyWlLk6GJQsqaUBKTNV-1" source="zkfFHV4jXpPFQw0GAbJ--17" target="C4UMS-F8YCJd4OorJaOU-145" edge="1">
          <mxGeometry x="0.5" y="41" relative="1" as="geometry">
            <mxPoint x="-80" y="-74" as="sourcePoint" />
            <mxPoint x="-170" y="-74" as="targetPoint" />
            <mxPoint x="-40" y="32" as="offset" />
            <Array as="points">
              <mxPoint x="-130" y="-74" />
              <mxPoint x="200" y="-63.5" />
              <mxPoint x="650" y="36.5" />
            </Array>
          </mxGeometry>
        </mxCell>
        <mxCell id="C4UMS-F8YCJd4OorJaOU-172" value="1" style="resizable=0;align=left;verticalAlign=bottom;labelBackgroundColor=none;fontSize=12;" parent="C4UMS-F8YCJd4OorJaOU-171" connectable="0" vertex="1">
          <mxGeometry x="-1" relative="1" as="geometry">
            <mxPoint x="10" as="offset" />
          </mxGeometry>
        </mxCell>
        <mxCell id="C4UMS-F8YCJd4OorJaOU-173" value="1" style="resizable=0;align=right;verticalAlign=bottom;labelBackgroundColor=none;fontSize=12;" parent="C4UMS-F8YCJd4OorJaOU-171" connectable="0" vertex="1">
          <mxGeometry x="1" relative="1" as="geometry">
            <mxPoint x="-10" y="20" as="offset" />
          </mxGeometry>
        </mxCell>
        <mxCell id="C4UMS-F8YCJd4OorJaOU-174" value="contient" style="edgeLabel;html=1;align=center;verticalAlign=middle;resizable=0;points=[];" parent="C4UMS-F8YCJd4OorJaOU-171" vertex="1" connectable="0">
          <mxGeometry x="-0.0291" y="4" relative="1" as="geometry">
            <mxPoint x="-58" y="10" as="offset" />
          </mxGeometry>
        </mxCell>
        <mxCell id="C4UMS-F8YCJd4OorJaOU-176" value="" style="endArrow=open;shadow=0;strokeWidth=1;rounded=0;curved=0;endFill=1;edgeStyle=elbowEdgeStyle;elbow=vertical;entryX=1;entryY=0;entryDx=0;entryDy=0;exitX=0;exitY=0.4;exitDx=0;exitDy=0;exitPerimeter=0;entryPerimeter=0;" parent="WIyWlLk6GJQsqaUBKTNV-1" source="C4UMS-F8YCJd4OorJaOU-156" target="C4UMS-F8YCJd4OorJaOU-130" edge="1">
          <mxGeometry x="0.5" y="41" relative="1" as="geometry">
            <mxPoint x="-246" y="-140" as="sourcePoint" />
            <mxPoint x="-330" y="-180" as="targetPoint" />
            <mxPoint x="-40" y="32" as="offset" />
            <Array as="points">
              <mxPoint x="-290" y="-164" />
              <mxPoint x="40" y="-153.5" />
              <mxPoint x="490" y="-53.5" />
            </Array>
          </mxGeometry>
        </mxCell>
        <mxCell id="C4UMS-F8YCJd4OorJaOU-177" value="1" style="resizable=0;align=left;verticalAlign=bottom;labelBackgroundColor=none;fontSize=12;" parent="C4UMS-F8YCJd4OorJaOU-176" connectable="0" vertex="1">
          <mxGeometry x="-1" relative="1" as="geometry">
            <mxPoint x="-20" y="-28" as="offset" />
          </mxGeometry>
        </mxCell>
        <mxCell id="C4UMS-F8YCJd4OorJaOU-178" value="1" style="resizable=0;align=right;verticalAlign=bottom;labelBackgroundColor=none;fontSize=12;" parent="C4UMS-F8YCJd4OorJaOU-176" connectable="0" vertex="1">
          <mxGeometry x="1" relative="1" as="geometry">
            <mxPoint x="20" y="14" as="offset" />
          </mxGeometry>
        </mxCell>
        <mxCell id="C4UMS-F8YCJd4OorJaOU-179" value="contient" style="edgeLabel;html=1;align=center;verticalAlign=middle;resizable=0;points=[];" parent="C4UMS-F8YCJd4OorJaOU-176" vertex="1" connectable="0">
          <mxGeometry x="-0.0291" y="4" relative="1" as="geometry">
            <mxPoint x="-58" y="10" as="offset" />
          </mxGeometry>
        </mxCell>
        <mxCell id="CriN_yEQk1uNqplosvwq-0" value="" style="endArrow=open;shadow=0;strokeWidth=1;rounded=0;curved=0;endFill=1;edgeStyle=elbowEdgeStyle;elbow=vertical;entryX=0.88;entryY=1.007;entryDx=0;entryDy=0;entryPerimeter=0;" parent="WIyWlLk6GJQsqaUBKTNV-1" target="C4UMS-F8YCJd4OorJaOU-112" edge="1">
          <mxGeometry x="0.5" y="41" relative="1" as="geometry">
            <mxPoint x="-68" y="540" as="sourcePoint" />
            <mxPoint x="-260.00000000000006" y="340" as="targetPoint" />
            <mxPoint x="-40" y="32" as="offset" />
            <Array as="points">
              <mxPoint x="-148.07999999999998" y="520" />
              <mxPoint x="-8.079999999999998" y="466" />
            </Array>
          </mxGeometry>
        </mxCell>
        <mxCell id="CriN_yEQk1uNqplosvwq-3" value="affecter" style="edgeLabel;html=1;align=center;verticalAlign=middle;resizable=0;points=[];" parent="CriN_yEQk1uNqplosvwq-0" vertex="1" connectable="0">
          <mxGeometry x="0.3029" y="4" relative="1" as="geometry">
            <mxPoint x="24" as="offset" />
          </mxGeometry>
        </mxCell>
        <mxCell id="CriN_yEQk1uNqplosvwq-4" value="&lt;font style=&quot;font-size: 36px;&quot;&gt;*&lt;/font&gt;" style="text;html=1;align=center;verticalAlign=middle;resizable=0;points=[];autosize=1;strokeColor=none;fillColor=none;" parent="WIyWlLk6GJQsqaUBKTNV-1" vertex="1">
          <mxGeometry x="110" y="323" width="40" height="60" as="geometry" />
        </mxCell>
        <mxCell id="CriN_yEQk1uNqplosvwq-6" value="&lt;font style=&quot;font-size: 36px;&quot;&gt;*&lt;/font&gt;" style="text;html=1;align=center;verticalAlign=middle;resizable=0;points=[];autosize=1;strokeColor=none;fillColor=none;" parent="WIyWlLk6GJQsqaUBKTNV-1" vertex="1">
          <mxGeometry x="-90" y="290" width="40" height="60" as="geometry" />
        </mxCell>
        <mxCell id="CriN_yEQk1uNqplosvwq-7" value="&lt;font style=&quot;font-size: 36px;&quot;&gt;*&lt;/font&gt;" style="text;html=1;align=center;verticalAlign=middle;resizable=0;points=[];autosize=1;strokeColor=none;fillColor=none;" parent="WIyWlLk6GJQsqaUBKTNV-1" vertex="1">
          <mxGeometry x="-170" y="300" width="40" height="60" as="geometry" />
        </mxCell>
        <mxCell id="CriN_yEQk1uNqplosvwq-8" value="&lt;font style=&quot;font-size: 36px;&quot;&gt;*&lt;/font&gt;" style="text;html=1;align=center;verticalAlign=middle;resizable=0;points=[];autosize=1;strokeColor=none;fillColor=none;" parent="WIyWlLk6GJQsqaUBKTNV-1" vertex="1">
          <mxGeometry x="-120" y="510" width="40" height="60" as="geometry" />
        </mxCell>
        <mxCell id="CriN_yEQk1uNqplosvwq-9" value="&lt;font style=&quot;font-size: 36px;&quot;&gt;*&lt;/font&gt;" style="text;html=1;align=center;verticalAlign=middle;resizable=0;points=[];autosize=1;strokeColor=none;fillColor=none;" parent="WIyWlLk6GJQsqaUBKTNV-1" vertex="1">
          <mxGeometry x="-60" y="630" width="40" height="60" as="geometry" />
        </mxCell>
        <mxCell id="CriN_yEQk1uNqplosvwq-10" value="&lt;font style=&quot;font-size: 36px;&quot;&gt;*&lt;/font&gt;" style="text;html=1;align=center;verticalAlign=middle;resizable=0;points=[];autosize=1;strokeColor=none;fillColor=none;" parent="WIyWlLk6GJQsqaUBKTNV-1" vertex="1">
          <mxGeometry x="-350" y="510" width="40" height="60" as="geometry" />
        </mxCell>
        <mxCell id="CriN_yEQk1uNqplosvwq-11" value="&lt;font style=&quot;font-size: 36px;&quot;&gt;*&lt;/font&gt;" style="text;html=1;align=center;verticalAlign=middle;resizable=0;points=[];autosize=1;strokeColor=none;fillColor=none;" parent="WIyWlLk6GJQsqaUBKTNV-1" vertex="1">
          <mxGeometry x="-300" y="340" width="40" height="60" as="geometry" />
        </mxCell>
        <mxCell id="CriN_yEQk1uNqplosvwq-12" value="&lt;font style=&quot;font-size: 36px;&quot;&gt;*&lt;/font&gt;" style="text;html=1;align=center;verticalAlign=middle;resizable=0;points=[];autosize=1;strokeColor=none;fillColor=none;" parent="WIyWlLk6GJQsqaUBKTNV-1" vertex="1">
          <mxGeometry x="-400" y="-15" width="40" height="60" as="geometry" />
        </mxCell>
        <mxCell id="CriN_yEQk1uNqplosvwq-13" value="&lt;font style=&quot;font-size: 36px;&quot;&gt;*&lt;/font&gt;" style="text;html=1;align=center;verticalAlign=middle;resizable=0;points=[];autosize=1;strokeColor=none;fillColor=none;" parent="WIyWlLk6GJQsqaUBKTNV-1" vertex="1">
          <mxGeometry x="-350" y="-15" width="40" height="60" as="geometry" />
        </mxCell>
        <mxCell id="CriN_yEQk1uNqplosvwq-14" value="&lt;font style=&quot;font-size: 36px;&quot;&gt;*&lt;/font&gt;" style="text;html=1;align=center;verticalAlign=middle;resizable=0;points=[];autosize=1;strokeColor=none;fillColor=none;" parent="WIyWlLk6GJQsqaUBKTNV-1" vertex="1">
          <mxGeometry x="-453" y="-80" width="40" height="60" as="geometry" />
        </mxCell>
        <mxCell id="CriN_yEQk1uNqplosvwq-15" value="&lt;font style=&quot;font-size: 36px;&quot;&gt;*&lt;/font&gt;" style="text;html=1;align=center;verticalAlign=middle;resizable=0;points=[];autosize=1;strokeColor=none;fillColor=none;" parent="WIyWlLk6GJQsqaUBKTNV-1" vertex="1">
          <mxGeometry x="-240" y="180" width="40" height="60" as="geometry" />
        </mxCell>
        <mxCell id="CriN_yEQk1uNqplosvwq-16" value="&lt;font style=&quot;font-size: 36px;&quot;&gt;*&lt;/font&gt;" style="text;html=1;align=center;verticalAlign=middle;resizable=0;points=[];autosize=1;strokeColor=none;fillColor=none;" parent="WIyWlLk6GJQsqaUBKTNV-1" vertex="1">
          <mxGeometry x="-240" y="-15" width="40" height="60" as="geometry" />
        </mxCell>
      </root>
    </mxGraphModel>
  </diagram>
</mxfile>
